<svg id="Layer_1" data-name="Layer 1" xmlns="http://www.w3.org/2000/svg" viewBox="0 0 1080 1080"><defs><style>.cls-1a{fill:#b3b3b3;}.cls-2a{fill:#fafafa;}.cls-3a{fill:#4d4d4d;}</style></defs><path class="cls-1a" d="M858,555.07A312.46,312.46,0,0,0,737.83,319.45l14.52-40.07,5.65,2.06a38.5,38.5,0,0,0,49.32-23.1l46.07-127.16a71.76,71.76,0,0,0-43-91.91l-1.64-.59a71.76,71.76,0,0,0-91.9,43L670.77,208.88a38.48,38.48,0,0,0,23.08,49.31l4.84,1.76-10.12,27.92A313.73,313.73,0,0,0,430.34,275l-9.2-25.37,4.84-1.76a38.5,38.5,0,0,0,23.09-49.32L403,71.33a71.75,71.75,0,0,0-91.91-43l-1.61.6a71.74,71.74,0,0,0-43,91.89L312.52,248a38.51,38.51,0,0,0,49.32,23.08L367.5,269l11.55,31.89A312.67,312.67,0,0,0,232.47,555.07a351,351,0,0,0-40,163.22c0,194.8,157.92,352.71,352.73,352.71S897.93,913.09,897.93,718.29A351.33,351.33,0,0,0,858,555.07ZM398.7,426.57a9.68,9.68,0,0,0-1.82,5.66h0A9.73,9.73,0,0,0,406.6,442h0a9.77,9.77,0,0,0,6.53-2.51"/><ellipse class="cls-2a" cx="545.5" cy="780.41" rx="283.11" ry="247.89"/><path class="cls-2a" d="M420.65,419.22a32.79,32.79,0,1,0,9.62,23.2A32.69,32.69,0,0,0,420.65,419.22Zm-21.95,7.35a9.68,9.68,0,0,0-1.82,5.66h0A9.73,9.73,0,0,0,406.6,442h0a9.77,9.77,0,0,0,6.53-2.51"/><rect class="cls-2a" x="667.7" y="409.62" width="65.6" height="65.6" rx="32.8"/><path class="cls-3a" d="M549.85,477.64l15.89-16.93a6,6,0,0,0-4.35-10H529.62a6,6,0,0,0-4.35,10l15.88,16.93A6,6,0,0,0,549.85,477.64Z"/><path class="cls-3a" d="M413.51,442.93a16.43,16.43,0,1,1-16.44-16.44,14.7,14.7,0,0,1,1.63.08,9.68,9.68,0,0,0-1.82,5.66h0A9.73,9.73,0,0,0,406.6,442h0a9.77,9.77,0,0,0,6.53-2.51A16.56,16.56,0,0,1,413.51,442.93Z"/><path class="cls-3a" d="M716.26,442.93a16.43,16.43,0,1,1-16.44-16.44,14.7,14.7,0,0,1,1.63.08,9.68,9.68,0,0,0-1.82,5.66h0a9.73,9.73,0,0,0,9.72,9.72h0a9.77,9.77,0,0,0,6.53-2.51A16.56,16.56,0,0,1,716.26,442.93Z"/><path class="cls-3a" d="M356,659.08c-2-4,21.46-28.52,51.08-29,32.16-.56,57.86,27.39,55.74,31.35-1.75,3.25-21.45-11.35-54.57-11.61C376.68,649.54,357.66,662.47,356,659.08Z"/><path class="cls-3a" d="M492.38,618.44c-2-4,21.47-28.52,51.09-29,32.15-.55,57.86,27.39,55.73,31.35-1.75,3.25-21.44-11.35-54.57-11.61C513.11,608.9,494.09,621.83,492.38,618.44Z"/><path class="cls-3a" d="M492.38,698.55c-2-4,21.47-28.51,51.09-29,32.15-.56,57.86,27.39,55.73,31.34-1.75,3.26-21.44-11.34-54.57-11.61C513.11,689,494.09,702,492.38,698.55Z"/><path class="cls-3a" d="M392,735.71c-2-4,21.47-28.52,51.09-29,32.15-.55,57.86,27.39,55.73,31.35-1.75,3.25-21.44-11.35-54.57-11.61C412.67,726.17,393.66,739.1,392,735.71Z"/><path class="cls-3a" d="M288.62,774c-2-4,21.46-28.51,51.08-29,32.16-.55,57.86,27.4,55.73,31.35C393.68,779.6,374,765,340.86,764.73,309.34,764.48,290.32,777.42,288.62,774Z"/><path class="cls-3a" d="M591.65,735.71c-2-4,21.47-28.52,51.09-29,32.15-.55,57.86,27.39,55.73,31.35-1.75,3.25-21.44-11.35-54.57-11.61C612.38,726.17,593.36,739.1,591.65,735.71Z"/><path class="cls-3a" d="M693.83,774c-2-4,21.47-28.51,51.09-29,32.15-.55,57.85,27.4,55.73,31.35-1.75,3.26-21.44-11.34-54.57-11.61C714.55,764.48,695.53,777.42,693.83,774Z"/><path class="cls-3a" d="M634.61,659.08c-2-4,21.47-28.52,51.09-29,32.15-.56,57.86,27.39,55.73,31.35-1.75,3.25-21.44-11.35-54.57-11.61C655.34,649.54,636.32,662.47,634.61,659.08Z"/><path class="cls-3a" d="M306.31,468.33c.5-1.85-38.25-32.7-91.3-39.75-42.26-5.62-77,6.07-76.91,7.8s31.34-6,74.6,0C269.21,444.36,305.83,470.1,306.31,468.33Z"/><path class="cls-3a" d="M307.77,501.75c.36-1.91-40.52-27.14-93.82-26.7-42.47.35-76.15,16.86-75.92,18.57s30.72-10.41,74.21-10.45C269.05,483.13,307.43,503.58,307.77,501.75Z"/><path class="cls-3a" d="M303.19,535.29c.23-1.94-42.17-22-95.22-15-42.27,5.62-74.71,26.23-74.35,27.91s29.89-14.17,73.2-19.6C263.39,521.55,303,537.16,303.19,535.29Z"/><path class="cls-3a" d="M802.69,455.43c-.5-1.85,38.25-32.69,91.3-39.75,42.26-5.62,77,6.07,76.91,7.81s-31.34-6-74.6,0C839.79,431.46,803.17,457.21,802.69,455.43Z"/><path class="cls-3a" d="M801.23,488.86c-.36-1.91,40.52-27.15,93.82-26.71,42.47.35,76.15,16.86,75.91,18.58s-30.71-10.42-74.2-10.45C839.94,470.23,801.57,490.69,801.23,488.86Z"/><path class="cls-3a" d="M805.81,522.4c-.23-1.94,42.17-22,95.22-15,42.27,5.61,74.7,26.23,74.35,27.91s-29.89-14.18-73.2-19.61C845.61,508.65,806,524.27,805.81,522.4Z"/></svg>