<svg id="Layer_1" data-name="Layer 1" xmlns="http://www.w3.org/2000/svg" viewBox="0 0 1080 1080"><defs><style>.cls-1,.cls-2{fill:#fff;stroke:#999;stroke-miterlimit:10;stroke-width:58.04px;}.cls-2{stroke-linecap:round;}</style></defs><circle class="cls-1" cx="371.75" cy="326.73" r="224.67"/><path class="cls-2" d="M272.52,248.09c-4.34,5-43.54,51.42-29.95,108.59,12.77,53.75,66.79,94.33,131.06,93.62"/><line class="cls-2" x1="515.92" y1="523.32" x2="637.62" y2="645.01"/><rect class="cls-2" x="592.68" y="648.76" width="243.4" height="144.17" transform="translate(718.95 -294.01) rotate(45)"/><path class="cls-2" d="M708,773.73H900.6a72.08,72.08,0,0,1,72.08,72.08v0a72.08,72.08,0,0,1-72.08,72.08H708a0,0,0,0,1,0,0V773.73A0,0,0,0,1,708,773.73Z" transform="translate(844.2 -346.47) rotate(45)"/></svg>